<?xml version="1.0" encoding="UTF-8"?>
<svg xmlns="http://www.w3.org/2000/svg" xmlns:xlink="http://www.w3.org/1999/xlink" width="16px" height="16px" viewBox="0 0 16 16" version="1.1">
<g id="surface1">
<path style="fill:none;stroke-width:2;stroke-linecap:round;stroke-linejoin:round;stroke:rgb(0%,0%,0%);stroke-opacity:1;stroke-miterlimit:4;" d="M 9.351562 21 C 10.060547 21.621094 10.986328 22.001953 12 22.001953 C 13.013672 22.001953 13.939453 21.621094 14.648438 21 M 18 7.998047 C 18 6.410156 17.367188 4.880859 16.242188 3.755859 C 15.117188 2.630859 13.59375 1.998047 12 1.998047 C 10.40625 1.998047 8.882812 2.630859 7.757812 3.755859 C 6.632812 4.880859 6 6.410156 6 7.998047 C 6 11.091797 5.220703 13.207031 4.347656 14.607422 C 3.615234 15.785156 3.246094 16.376953 3.263672 16.541016 C 3.275391 16.722656 3.316406 16.792969 3.462891 16.904297 C 3.591797 16.998047 4.195312 16.998047 5.390625 16.998047 L 18.609375 16.998047 C 19.804688 16.998047 20.408203 16.998047 20.537109 16.904297 C 20.683594 16.792969 20.724609 16.722656 20.736328 16.541016 C 20.753906 16.376953 20.384766 15.785156 19.652344 14.607422 C 18.779297 13.207031 18 11.091797 18 7.998047 Z M 18 7.998047 " transform="matrix(0.666667,0,0,0.666667,0,0)"/>
</g>
</svg>
