<?xml version="1.0" encoding="UTF-8"?>
<svg xmlns="http://www.w3.org/2000/svg" xmlns:xlink="http://www.w3.org/1999/xlink" width="16px" height="16px" viewBox="0 0 16 16" version="1.1">
<g id="surface1">
<path style=" stroke:none;fill-rule:nonzero;fill:rgb(0%,0%,0%);fill-opacity:1;" d="M 5.804688 14.960938 C 5.59375 14.871094 5.472656 14.652344 5.503906 14.425781 L 6.414062 8.5 L 4 8.5 C 3.84375 8.503906 3.695312 8.4375 3.597656 8.316406 C 3.5 8.195312 3.464844 8.035156 3.5 7.886719 L 5 1.386719 C 5.054688 1.15625 5.261719 0.992188 5.5 1 L 10.5 1 C 10.652344 1 10.792969 1.066406 10.890625 1.183594 C 10.988281 1.304688 11.023438 1.460938 10.988281 1.609375 L 10.125 5.5 L 12.5 5.5 C 12.691406 5.5 12.867188 5.609375 12.949219 5.78125 C 13.023438 5.945312 13 6.136719 12.894531 6.28125 L 6.394531 14.78125 C 6.304688 14.910156 6.160156 14.992188 6 15 C 5.933594 15 5.867188 14.984375 5.804688 14.960938 Z M 8.875 6.5 L 9.875 2 L 5.898438 2 L 4.628906 7.5 L 7.585938 7.5 L 6.789062 12.640625 L 11.5 6.5 Z M 8.875 6.5 "/>
</g>
</svg>
