<?xml version="1.0" encoding="UTF-8"?>
<svg xmlns="http://www.w3.org/2000/svg" xmlns:xlink="http://www.w3.org/1999/xlink" width="14px" height="14px" viewBox="0 0 14 14" version="1.1">
<g id="surface1">
<path style=" stroke:none;fill-rule:nonzero;fill:rgb(0%,0%,0%);fill-opacity:1;" d="M 12.6875 1.75 L 1.3125 1.75 C 0.589844 1.75 0 2.335938 0 3.0625 L 0 10.9375 C 0 11.660156 0.589844 12.25 1.3125 12.25 L 12.6875 12.25 C 13.410156 12.25 14 11.660156 14 10.9375 L 14 3.0625 C 14 2.335938 13.410156 1.75 12.6875 1.75 Z M 12.6875 3.0625 L 12.6875 4.175781 C 12.074219 4.679688 11.097656 5.453125 9.007812 7.089844 C 8.546875 7.453125 7.636719 8.324219 7 8.3125 C 6.363281 8.324219 5.453125 7.453125 4.992188 7.089844 C 2.902344 5.453125 1.925781 4.679688 1.3125 4.175781 L 1.3125 3.0625 Z M 1.3125 10.9375 L 1.3125 5.863281 C 1.9375 6.359375 2.828125 7.0625 4.183594 8.121094 C 4.777344 8.59375 5.828125 9.632812 7 9.625 C 8.167969 9.632812 9.203125 8.605469 9.816406 8.121094 C 11.171875 7.0625 12.0625 6.359375 12.6875 5.863281 L 12.6875 10.9375 Z M 1.3125 10.9375 "/>
</g>
</svg>
