<?xml version="1.0" encoding="UTF-8"?>
<svg xmlns="http://www.w3.org/2000/svg" xmlns:xlink="http://www.w3.org/1999/xlink" width="16px" height="16px" viewBox="0 0 16 16" version="1.1">
<g id="surface1">
<path style=" stroke:none;fill-rule:evenodd;fill:rgb(0%,0%,0%);fill-opacity:1;" d="M 6.179688 10.191406 L 11.5 6.261719 C 11.757812 6.070312 12.132812 6.144531 12.257812 6.441406 C 12.910156 8.023438 12.617188 9.921875 11.316406 11.222656 C 10.015625 12.523438 8.207031 12.8125 6.550781 12.160156 L 4.742188 12.996094 C 7.335938 14.773438 10.484375 14.332031 12.453125 12.363281 C 14.011719 10.800781 14.496094 8.671875 14.042969 6.75 L 14.046875 6.753906 C 13.390625 3.933594 14.207031 2.804688 15.878906 0.5 C 15.921875 0.445312 15.960938 0.390625 16 0.332031 L 13.800781 2.535156 L 13.800781 2.53125 L 6.179688 10.195312 M 5.082031 11.148438 C 3.21875 9.367188 3.542969 6.613281 5.128906 5.027344 C 6.304688 3.851562 8.226562 3.371094 9.90625 4.074219 L 11.710938 3.242188 C 11.335938 2.96875 10.925781 2.742188 10.492188 2.574219 C 8.257812 1.660156 5.695312 2.179688 3.988281 3.886719 C 2.300781 5.578125 1.769531 8.175781 2.679688 10.394531 C 3.363281 12.054688 2.246094 13.226562 1.121094 14.410156 C 0.722656 14.832031 0.320312 15.25 0 15.695312 L 5.078125 11.152344 "/>
</g>
</svg>
