<?xml version="1.0" encoding="UTF-8"?>
<svg xmlns="http://www.w3.org/2000/svg" xmlns:xlink="http://www.w3.org/1999/xlink" width="16px" height="16px" viewBox="0 0 16 16" version="1.1">
<g id="surface1">
<path style=" stroke:none;fill-rule:nonzero;fill:rgb(12.941177%,12.941177%,12.941177%);fill-opacity:1;" d="M 8.6875 1.261719 C 8.300781 0.898438 7.699219 0.898438 7.3125 1.261719 L 2.46875 5.839844 C 2.167969 6.125 2 6.519531 2 6.929688 L 2 12.5 C 2 13.328125 2.671875 14 3.5 14 L 5 14 C 5.828125 14 6.5 13.328125 6.5 12.5 L 6.5 10 C 6.5 9.722656 6.722656 9.5 7 9.5 L 9 9.5 C 9.277344 9.5 9.5 9.722656 9.5 10 L 9.5 12.5 C 9.5 13.328125 10.171875 14 11 14 L 12.5 14 C 13.328125 14 14 13.328125 14 12.5 L 14 6.929688 C 14 6.519531 13.832031 6.125 13.53125 5.839844 Z M 8.6875 1.261719 "/>
</g>
</svg>
