<?xml version="1.0" encoding="UTF-8"?>
<svg xmlns="http://www.w3.org/2000/svg" xmlns:xlink="http://www.w3.org/1999/xlink" width="16px" height="16px" viewBox="0 0 16 16" version="1.1">
<g id="surface1">
<path style=" stroke:none;fill-rule:nonzero;fill:rgb(0%,0%,0%);fill-opacity:1;" d="M 2.015625 3.527344 L 13.984375 3.527344 C 15.097656 3.527344 16 4.394531 16 5.460938 L 16 13.140625 C 16 14.210938 15.097656 15.074219 13.984375 15.074219 L 2.015625 15.074219 C 0.902344 15.074219 0 14.210938 0 13.140625 L 0 5.460938 C 0 4.394531 0.902344 3.527344 2.015625 3.527344 Z M 13.984375 13.742188 C 14.328125 13.742188 14.609375 13.472656 14.609375 13.140625 L 14.609375 5.460938 C 14.609375 5.128906 14.328125 4.863281 13.984375 4.863281 L 2.015625 4.863281 C 1.671875 4.863281 1.390625 5.128906 1.390625 5.460938 L 1.390625 13.140625 C 1.390625 13.472656 1.671875 13.742188 2.015625 13.742188 Z M 12.660156 9.335938 L 8.625 9.335938 L 8.625 9.269531 L 3.339844 9.269531 C 1.496094 9.269531 0 7.832031 0 6.0625 L 0 5.394531 C 0 4.328125 0.902344 3.460938 2.015625 3.460938 L 13.984375 3.460938 C 15.097656 3.460938 16 4.328125 16 5.394531 L 16 6.128906 C 16 7.898438 14.503906 9.335938 12.660156 9.335938 Z M 10.015625 8 L 12.660156 8 C 13.738281 8 14.609375 7.164062 14.609375 6.128906 L 14.609375 5.394531 C 14.609375 5.0625 14.328125 4.792969 13.984375 4.792969 L 2.015625 4.792969 C 1.671875 4.792969 1.390625 5.0625 1.390625 5.394531 L 1.390625 6.0625 C 1.390625 7.097656 2.261719 7.933594 3.339844 7.933594 L 10.015625 7.933594 Z M 8.695312 9.933594 L 7.304688 9.933594 L 7.304688 7.332031 L 8.695312 7.332031 Z M 11.523438 4.863281 L 4.476562 4.863281 L 5.433594 0.988281 L 10.566406 0.988281 Z M 6.238281 3.527344 L 9.765625 3.527344 L 9.46875 2.324219 L 6.535156 2.324219 Z M 6.238281 3.527344 "/>
</g>
</svg>
