<?xml version="1.0" encoding="UTF-8"?>
<svg xmlns="http://www.w3.org/2000/svg" xmlns:xlink="http://www.w3.org/1999/xlink" width="16px" height="16px" viewBox="0 0 16 16" version="1.1">
<g id="surface1">
<path style=" stroke:none;fill-rule:nonzero;fill:rgb(12.941177%,12.941177%,12.941177%);fill-opacity:1;" d="M 4.800781 1.601562 L 11.199219 1.601562 C 12.082031 1.601562 12.800781 2.316406 12.800781 3.199219 L 12.800781 12.800781 C 12.800781 13.683594 12.082031 14.398438 11.199219 14.398438 L 4.800781 14.398438 C 3.917969 14.398438 3.199219 13.683594 3.199219 12.800781 L 3.199219 3.199219 C 3.199219 2.316406 3.917969 1.601562 4.800781 1.601562 Z M 4.800781 2.398438 C 4.359375 2.398438 4 2.757812 4 3.199219 L 4 12.800781 C 4 13.242188 4.359375 13.601562 4.800781 13.601562 L 11.199219 13.601562 C 11.640625 13.601562 12 13.242188 12 12.800781 L 12 3.199219 C 12 2.757812 11.640625 2.398438 11.199219 2.398438 Z M 4.800781 2.398438 "/>
<path style=" stroke:none;fill-rule:nonzero;fill:rgb(12.941177%,12.941177%,12.941177%);fill-opacity:1;" d="M 10.398438 5.199219 C 10.398438 5.394531 10.257812 5.558594 10.070312 5.59375 L 10 5.601562 L 6 5.601562 C 5.777344 5.601562 5.601562 5.421875 5.601562 5.199219 C 5.601562 5.003906 5.742188 4.839844 5.929688 4.804688 L 6 4.800781 L 10 4.800781 C 10.222656 4.800781 10.398438 4.980469 10.398438 5.199219 Z M 10.398438 8 C 10.398438 8.195312 10.257812 8.359375 10.070312 8.394531 L 10 8.398438 L 6 8.398438 C 5.777344 8.398438 5.601562 8.222656 5.601562 8 C 5.601562 7.804688 5.742188 7.640625 5.929688 7.605469 L 6 7.601562 L 10 7.601562 C 10.222656 7.601562 10.398438 7.777344 10.398438 8 Z M 10.398438 10.800781 C 10.398438 10.996094 10.257812 11.160156 10.070312 11.195312 L 10 11.199219 L 6 11.199219 C 5.777344 11.199219 5.601562 11.019531 5.601562 10.800781 C 5.601562 10.605469 5.742188 10.441406 5.929688 10.40625 L 6 10.398438 L 10 10.398438 C 10.222656 10.398438 10.398438 10.578125 10.398438 10.800781 Z M 10.398438 10.800781 "/>
</g>
</svg>
