<?xml version="1.0" encoding="UTF-8"?>
<svg xmlns="http://www.w3.org/2000/svg" xmlns:xlink="http://www.w3.org/1999/xlink" width="16px" height="16px" viewBox="0 0 16 16" version="1.1">
<g id="surface1">
<path style="fill-rule:nonzero;fill:rgb(0%,0%,0%);fill-opacity:1;stroke-width:1.5;stroke-linecap:round;stroke-linejoin:round;stroke:rgb(0%,0%,0%);stroke-opacity:1;stroke-miterlimit:4;" d="M 7.001953 12.498047 C 7.277344 12.498047 7.5 12.275391 7.5 12 C 7.5 11.724609 7.277344 11.501953 7.001953 11.501953 C 6.726562 11.501953 6.498047 11.724609 6.498047 12 C 6.498047 12.275391 6.726562 12.498047 7.001953 12.498047 Z M 7.001953 12.498047 " transform="matrix(0.666667,0,0,0.666667,0,0)"/>
<path style="fill-rule:nonzero;fill:rgb(0%,0%,0%);fill-opacity:1;stroke-width:1.5;stroke-linecap:round;stroke-linejoin:round;stroke:rgb(0%,0%,0%);stroke-opacity:1;stroke-miterlimit:4;" d="M 12 12.498047 C 12.275391 12.498047 12.498047 12.275391 12.498047 12 C 12.498047 11.724609 12.275391 11.501953 12 11.501953 C 11.724609 11.501953 11.501953 11.724609 11.501953 12 C 11.501953 12.275391 11.724609 12.498047 12 12.498047 Z M 12 12.498047 " transform="matrix(0.666667,0,0,0.666667,0,0)"/>
<path style="fill-rule:nonzero;fill:rgb(0%,0%,0%);fill-opacity:1;stroke-width:1.5;stroke-linecap:round;stroke-linejoin:round;stroke:rgb(0%,0%,0%);stroke-opacity:1;stroke-miterlimit:4;" d="M 16.998047 12.498047 C 17.273438 12.498047 17.501953 12.275391 17.501953 12 C 17.501953 11.724609 17.273438 11.501953 16.998047 11.501953 C 16.722656 11.501953 16.5 11.724609 16.5 12 C 16.5 12.275391 16.722656 12.498047 16.998047 12.498047 Z M 16.998047 12.498047 " transform="matrix(0.666667,0,0,0.666667,0,0)"/>
<path style="fill:none;stroke-width:1.5;stroke-linecap:round;stroke-linejoin:round;stroke:rgb(0%,0%,0%);stroke-opacity:1;stroke-miterlimit:4;" d="M 12 22.001953 C 17.525391 22.001953 22.001953 17.525391 22.001953 12 C 22.001953 6.474609 17.525391 1.998047 12 1.998047 C 6.474609 1.998047 1.998047 6.474609 1.998047 12 C 1.998047 17.525391 6.474609 22.001953 12 22.001953 Z M 12 22.001953 " transform="matrix(0.666667,0,0,0.666667,0,0)"/>
</g>
</svg>
