<?xml version="1.0" encoding="UTF-8"?>
<svg xmlns="http://www.w3.org/2000/svg" xmlns:xlink="http://www.w3.org/1999/xlink" width="16px" height="16px" viewBox="0 0 16 16" version="1.1">
<g id="surface1">
<path style=" stroke:none;fill-rule:evenodd;fill:rgb(0%,0%,0%);fill-opacity:1;" d="M 15 14 C 15 14 16 14 16 13 C 16 12 15 9 11 9 C 7 9 6 12 6 13 C 6 14 7 14 7 14 Z M 7.023438 13 L 14.976562 13 L 15 12.996094 C 14.996094 12.730469 14.832031 11.964844 14.238281 11.277344 C 13.6875 10.628906 12.71875 10 11 10 C 9.28125 10 8.3125 10.628906 7.761719 11.277344 C 7.167969 11.964844 7 12.734375 7 12.996094 Z M 11 7 C 12.105469 7 13 6.105469 13 5 C 13 3.894531 12.105469 3 11 3 C 9.894531 3 9 3.894531 9 5 C 9 6.105469 9.894531 7 11 7 Z M 14 5 C 14 6.65625 12.65625 8 11 8 C 9.34375 8 8 6.65625 8 5 C 8 3.34375 9.34375 2 11 2 C 12.65625 2 14 3.34375 14 5 Z M 6.9375 9.28125 C 6.535156 9.152344 6.125 9.070312 5.707031 9.03125 C 5.472656 9.011719 5.234375 9 5 9 C 1 9 0 12 0 13 C 0 13.667969 0.332031 14 1 14 L 5.214844 14 C 5.066406 13.6875 4.992188 13.34375 5 13 C 5 11.988281 5.378906 10.957031 6.089844 10.097656 C 6.332031 9.800781 6.617188 9.527344 6.9375 9.28125 Z M 4.921875 10 C 3.253906 10.019531 2.304688 10.640625 1.761719 11.277344 C 1.164062 11.96875 1 12.738281 1 13 L 4 13 C 4 11.953125 4.324219 10.914062 4.921875 10 Z M 1.5 5.5 C 1.5 3.84375 2.84375 2.5 4.5 2.5 C 6.15625 2.5 7.5 3.84375 7.5 5.5 C 7.5 7.15625 6.15625 8.5 4.5 8.5 C 2.84375 8.5 1.5 7.15625 1.5 5.5 Z M 4.5 3.5 C 3.394531 3.5 2.5 4.394531 2.5 5.5 C 2.5 6.605469 3.394531 7.5 4.5 7.5 C 5.605469 7.5 6.5 6.605469 6.5 5.5 C 6.5 4.394531 5.605469 3.5 4.5 3.5 Z M 4.5 3.5 "/>
</g>
</svg>
