<?xml version="1.0" encoding="UTF-8"?>
<svg xmlns="http://www.w3.org/2000/svg" xmlns:xlink="http://www.w3.org/1999/xlink" width="16px" height="16px" viewBox="0 0 16 16" version="1.1">
<g id="surface1">
<path style=" stroke:none;fill-rule:nonzero;fill:rgb(0%,0%,0%);fill-opacity:1;" d="M 14.5 13.792969 L 10.722656 10.015625 C 12.609375 7.753906 12.378906 4.410156 10.207031 2.421875 C 8.03125 0.4375 4.679688 0.511719 2.597656 2.597656 C 0.511719 4.679688 0.4375 8.03125 2.421875 10.207031 C 4.410156 12.378906 7.753906 12.609375 10.015625 10.722656 L 13.792969 14.5 Z M 2 6.5 C 2 4.015625 4.015625 2 6.5 2 C 8.984375 2 11 4.015625 11 6.5 C 11 8.984375 8.984375 11 6.5 11 C 4.015625 10.996094 2.003906 8.984375 2 6.5 Z M 2 6.5 "/>
</g>
</svg>
